<svg width="68" height="18" viewBox="0 0 68 18" fill="none" xmlns="http://www.w3.org/2000/svg">
<g clip-path="url(#clip0_124_90)">
<g clip-path="url(#clip1_124_90)">
<g clip-path="url(#clip2_124_90)">
<path d="M48.2624 7.67041V9.22341H47.2938V10.2419H48.2624V13.7024C48.2624 14.884 48.7943 15.3567 50.1324 15.3567C50.3675 15.3567 50.5915 15.3285 50.7874 15.2947V14.2876C50.6196 14.3045 50.5131 14.3157 50.3283 14.3157C49.7293 14.3157 49.4662 14.0344 49.4662 13.3929V10.2419H50.7874V9.22341H49.4662V7.67041H48.2624Z" fill="#141719"/>
<path d="M54.1963 15.4411C55.9767 15.4411 57.0684 14.2426 57.0684 12.2563C57.0684 10.2813 55.9711 9.07715 54.1963 9.07715C52.4158 9.07715 51.3185 10.2813 51.3185 12.2563C51.3185 14.2426 52.4102 15.4411 54.1963 15.4411ZM54.1963 14.3663C53.1493 14.3663 52.5614 13.5955 52.5614 12.2563C52.5614 10.9284 53.1493 10.1519 54.1963 10.1519C55.2376 10.1519 55.8311 10.9284 55.8311 12.2563C55.8311 13.5899 55.2376 14.3663 54.1963 14.3663Z" fill="#141719"/>
<path d="M58.0026 15.3231H59.2063V11.7051C59.2063 10.8442 59.8501 10.2646 60.7627 10.2646C60.9754 10.2646 61.3338 10.304 61.4345 10.3378V9.14488C61.3058 9.11112 61.0763 9.09424 60.8971 9.09424C60.1021 9.09424 59.4246 9.53312 59.2511 10.1352H59.1614V9.19552H58.0026V15.3231Z" fill="#141719"/>
<path d="M64.4234 10.1069C65.3136 10.1069 65.8958 10.7314 65.9239 11.6936H62.8445C62.9117 10.7371 63.5331 10.1069 64.4234 10.1069ZM65.9182 13.6686C65.6943 14.1469 65.1961 14.4114 64.4681 14.4114C63.5052 14.4114 62.8837 13.7305 62.8445 12.6558V12.5883H67.15V12.1662C67.15 10.2419 66.1254 9.07715 64.4289 9.07715C62.7101 9.07715 61.6184 10.3207 61.6184 12.2789C61.6184 14.2369 62.6878 15.4411 64.4346 15.4411C65.8287 15.4411 66.8029 14.7658 67.0772 13.6686H65.9182Z" fill="#141719"/>
<path d="M40.3684 13.0601C40.4613 14.5647 41.709 15.527 43.5659 15.527C45.5505 15.527 46.7924 14.518 46.7924 12.9084C46.7924 11.6429 46.0843 10.943 44.3667 10.5406L43.444 10.3132C42.3531 10.0565 41.912 9.71245 41.912 9.11176C41.912 8.35359 42.5968 7.85787 43.6239 7.85787C44.5989 7.85787 45.2719 8.34192 45.3938 9.11758H46.6588C46.5834 7.7004 45.3415 6.70312 43.6413 6.70312C41.8134 6.70312 40.5947 7.7004 40.5947 9.19923C40.5947 10.4356 41.2853 11.1705 42.7999 11.5262L43.8792 11.7887C44.9876 12.0511 45.4751 12.4361 45.4751 13.0776C45.4751 13.824 44.709 14.3664 43.6645 14.3664C42.5445 14.3664 41.767 13.8591 41.6567 13.0601H40.3684Z" fill="#141719"/>
<path d="M27.8989 9.09424C27.0703 9.09424 26.3537 9.51062 25.9841 10.2083H25.8946V9.19552H24.7356V17.36H25.9393V14.3947H26.0345C26.3537 15.0418 27.0423 15.4244 27.9101 15.4244C29.4498 15.4244 30.4295 14.2034 30.4295 12.2565C30.4295 10.3096 29.4498 9.09424 27.8989 9.09424ZM27.5574 14.3384C26.5496 14.3384 25.9169 13.5394 25.9169 12.2622C25.9169 10.9792 26.5496 10.1802 27.563 10.1802C28.582 10.1802 29.1923 10.9623 29.1923 12.2565C29.1923 13.5563 28.582 14.3384 27.5574 14.3384Z" fill="#141719"/>
<path d="M34.6417 9.09424C33.813 9.09424 33.0965 9.51062 32.7269 10.2083H32.6374V9.19552H31.4784V17.36H32.6821V14.3947H32.7773C33.0965 15.0418 33.7851 15.4244 34.6529 15.4244C36.1926 15.4244 37.1723 14.2034 37.1723 12.2565C37.1723 10.3096 36.1926 9.09424 34.6417 9.09424ZM34.3002 14.3384C33.2924 14.3384 32.6597 13.5394 32.6597 12.2622C32.6597 10.9792 33.2924 10.1802 34.3058 10.1802C35.3248 10.1802 35.9351 10.9623 35.9351 12.2565C35.9351 13.5563 35.3248 14.3384 34.3002 14.3384Z" fill="#141719"/>
<path d="M22.576 15.3229H23.9571L20.9338 6.90723H19.5352L16.5118 15.3229H17.8466L18.6184 13.0892H21.81L22.576 15.3229ZM20.1677 8.43522H20.2664L21.4792 11.9928H18.9491L20.1677 8.43522Z" fill="#141719"/>
<path d="M17.3193 0.55957V4.61933H18.7778C19.9815 4.61933 20.6785 3.87377 20.6785 2.57679C20.6785 1.2995 19.9759 0.55957 18.7778 0.55957H17.3193ZM17.9463 1.13351H18.7078C19.5448 1.13351 20.0403 1.66805 20.0403 2.58522C20.0403 3.51646 19.5532 4.04539 18.7078 4.04539H17.9463V1.13351Z" fill="#141719"/>
<path d="M22.8135 4.67855C23.7036 4.67855 24.2495 4.0793 24.2495 3.08616C24.2495 2.09865 23.7009 1.49658 22.8135 1.49658C21.9232 1.49658 21.3745 2.09865 21.3745 3.08616C21.3745 4.0793 21.9204 4.67855 22.8135 4.67855ZM22.8135 4.14119C22.29 4.14119 21.996 3.75575 21.996 3.08616C21.996 2.42219 22.29 2.03394 22.8135 2.03394C23.3341 2.03394 23.6308 2.42219 23.6308 3.08616C23.6308 3.75294 23.3341 4.14119 22.8135 4.14119Z" fill="#141719"/>
<path d="M28.8982 1.55566H28.2963L27.7533 3.8936H27.7057L27.0786 1.55566H26.502L25.8749 3.8936H25.8301L25.2843 1.55566H24.674L25.5137 4.61947H26.1324L26.7595 2.36311H26.8071L27.437 4.61947H28.0612L28.8982 1.55566Z" fill="#141719"/>
<path d="M29.5913 4.61947H30.1931V2.82732C30.1931 2.34905 30.4758 2.05082 30.921 2.05082C31.3661 2.05082 31.5788 2.29559 31.5788 2.78793V4.61947H32.1807V2.63602C32.1807 1.90733 31.8056 1.49658 31.1253 1.49658C30.6662 1.49658 30.3639 1.70196 30.2155 2.04238H30.1707V1.55567H29.5913V4.61947Z" fill="#141719"/>
<path d="M33.1287 4.61937H33.7306V0.359863H33.1287V4.61937Z" fill="#141719"/>
<path d="M35.9941 4.67855C36.8843 4.67855 37.4302 4.0793 37.4302 3.08616C37.4302 2.09865 36.8815 1.49658 35.9941 1.49658C35.104 1.49658 34.5552 2.09865 34.5552 3.08616C34.5552 4.0793 35.1011 4.67855 35.9941 4.67855ZM35.9941 4.14119C35.4706 4.14119 35.1767 3.75575 35.1767 3.08616C35.1767 2.42219 35.4706 2.03394 35.9941 2.03394C36.5149 2.03394 36.8115 2.42219 36.8115 3.08616C36.8115 3.75294 36.5149 4.14119 35.9941 4.14119Z" fill="#141719"/>
<path d="M39.2235 4.16089C38.8959 4.16089 38.658 4.00052 38.658 3.7248C38.658 3.45472 38.8484 3.31124 39.2683 3.2831L40.0129 3.23527V3.49129C40.0129 3.8711 39.677 4.16089 39.2235 4.16089ZM39.0695 4.67011C39.4699 4.67011 39.803 4.49568 39.985 4.18902H40.0325V4.61947H40.612V2.52629C40.612 1.87921 40.1809 1.49658 39.4166 1.49658C38.7252 1.49658 38.2325 1.83419 38.171 2.3603H38.7532C38.8204 2.14367 39.0527 2.01987 39.3887 2.01987C39.8002 2.01987 40.0129 2.20275 40.0129 2.52629V2.79075L39.1871 2.83858C38.4621 2.88359 38.0533 3.20151 38.0533 3.75294C38.0533 4.3128 38.4816 4.67011 39.0695 4.67011Z" fill="#141719"/>
<path d="M42.6544 4.67001C43.0743 4.67001 43.4298 4.47026 43.6118 4.13547H43.6594V4.61937H44.236V0.359863H43.6342V2.04228H43.5894C43.4243 1.70467 43.0715 1.50492 42.6544 1.50492C41.8846 1.50492 41.389 2.11825 41.389 3.08606C41.389 4.05668 41.879 4.67001 42.6544 4.67001ZM42.8251 2.04791C43.3291 2.04791 43.6454 2.45023 43.6454 3.08887C43.6454 3.73034 43.3318 4.12702 42.8251 4.12702C42.3156 4.12702 42.0105 3.73596 42.0105 3.08606C42.0105 2.44179 42.3185 2.04791 42.8251 2.04791Z" fill="#141719"/>
<path d="M48.139 4.67855C49.0292 4.67855 49.5751 4.0793 49.5751 3.08616C49.5751 2.09865 49.0264 1.49658 48.139 1.49658C47.2487 1.49658 46.7001 2.09865 46.7001 3.08616C46.7001 4.0793 47.246 4.67855 48.139 4.67855ZM48.139 4.14119C47.6155 4.14119 47.3215 3.75575 47.3215 3.08616C47.3215 2.42219 47.6155 2.03394 48.139 2.03394C48.6596 2.03394 48.9564 2.42219 48.9564 3.08616C48.9564 3.75294 48.6596 4.14119 48.139 4.14119Z" fill="#141719"/>
<path d="M50.3717 4.61947H50.9736V2.82732C50.9736 2.34905 51.2563 2.05082 51.7014 2.05082C52.1465 2.05082 52.3593 2.29559 52.3593 2.78793V4.61947H52.9611V2.63602C52.9611 1.90733 52.5861 1.49658 51.9058 1.49658C51.4467 1.49658 51.1444 1.70196 50.996 2.04238H50.9512V1.55567H50.3717V4.61947Z" fill="#141719"/>
<path d="M55.7332 0.792969V1.56947H55.2488V2.0787H55.7332V3.80895C55.7332 4.39976 55.9991 4.6361 56.6682 4.6361C56.7857 4.6361 56.8977 4.62203 56.9956 4.60515V4.10154C56.9117 4.10998 56.8585 4.11561 56.7661 4.11561C56.4666 4.11561 56.335 3.97493 56.335 3.65421V2.0787H56.9956V1.56947H56.335V0.792969H55.7332Z" fill="#141719"/>
<path d="M57.8036 4.61937H58.4055V2.83004C58.4055 2.36583 58.6798 2.05354 59.1725 2.05354C59.5979 2.05354 59.8248 2.30111 59.8248 2.79065V4.61937H60.4266V2.64154C60.4266 1.91287 60.0263 1.4993 59.3768 1.4993C58.9177 1.4993 58.5958 1.70467 58.4475 2.04791H58.3999V0.359863H57.8036V4.61937Z" fill="#141719"/>
<path d="M62.5978 2.01144C63.0429 2.01144 63.334 2.32373 63.348 2.80482H61.8084C61.8419 2.32653 62.1527 2.01144 62.5978 2.01144ZM63.3453 3.79233C63.2333 4.03146 62.9841 4.16369 62.6202 4.16369C62.1387 4.16369 61.828 3.82328 61.8084 3.28591V3.25215H63.9611V3.04115C63.9611 2.07896 63.4489 1.49658 62.6007 1.49658C61.7412 1.49658 61.1953 2.11835 61.1953 3.09741C61.1953 4.07648 61.7301 4.67855 62.6034 4.67855C63.3004 4.67855 63.7876 4.34094 63.9248 3.79233H63.3453Z" fill="#141719"/>
<path d="M9.98063 8.41579C9.99523 7.27629 10.6041 6.19808 11.5701 5.60125C10.9607 4.72658 9.94003 4.17202 8.8781 4.13862C7.74548 4.01914 6.64745 4.81977 6.07028 4.81977C5.48194 4.81977 4.59329 4.15049 3.63639 4.17027C2.38908 4.21077 1.22628 4.92347 0.619446 6.01941C-0.685016 8.28919 0.287995 11.625 1.53755 13.4597C2.16274 14.3582 2.8934 15.3617 3.84946 15.3261C4.78501 15.2871 5.13442 14.7266 6.26372 14.7266C7.38254 14.7266 7.71036 15.3261 8.68581 15.3035C9.68971 15.2871 10.3222 14.4011 10.9255 13.4942C11.3747 12.854 11.7203 12.1465 11.9496 11.3978C10.7698 10.8964 9.982 9.70315 9.98063 8.41579Z" fill="#141719"/>
<path d="M8.13817 2.9321C8.68554 2.27171 8.9552 1.4229 8.8899 0.565918C8.05365 0.65419 7.28119 1.05587 6.72643 1.69092C6.18395 2.31139 5.90164 3.14526 5.95501 3.96949C6.79156 3.97814 7.61397 3.58735 8.13817 2.9321Z" fill="#141719"/>
</g>
</g>
</g>
<defs>
<clipPath id="clip0_124_90">
<rect width="68" height="17" fill="white" transform="translate(0 0.359863)"/>
</clipPath>
<clipPath id="clip1_124_90">
<rect width="68" height="17" fill="white" transform="translate(0 0.359863)"/>
</clipPath>
<clipPath id="clip2_124_90">
<rect width="68" height="17" fill="white" transform="translate(0 0.359863)"/>
</clipPath>
</defs>
</svg>
