<svg width="17" height="17" viewBox="0 0 17 17" fill="none" xmlns="http://www.w3.org/2000/svg">
<path d="M10.2176 3.69927L14.8843 8.36593C15.1509 8.6326 15.1509 9.0326 14.8843 9.29927L10.2176 13.9659C9.95098 14.2326 9.55098 14.2326 9.28432 13.9659C9.01765 13.6992 9.01765 13.2992 9.28432 13.0326L12.8176 9.49927H2.41765C2.01765 9.49927 1.75098 9.2326 1.75098 8.8326C1.75098 8.4326 2.01765 8.16593 2.41765 8.16593H12.8176L9.28432 4.6326C9.15098 4.49927 9.08431 4.36593 9.08431 4.16593C9.08431 3.96593 9.15098 3.8326 9.28432 3.69927C9.55098 3.4326 9.95098 3.4326 10.2176 3.69927Z" fill="#182CC0"/>
</svg>
