<svg width="33" height="33" viewBox="0 0 33 33" fill="none" xmlns="http://www.w3.org/2000/svg">
<path d="M12.1125 15.6835C12.9593 15.6835 13.6458 14.997 13.6458 14.1502C13.6458 13.3033 12.9593 12.6169 12.1125 12.6169C11.2656 12.6169 10.5791 13.3033 10.5791 14.1502C10.5791 14.997 11.2656 15.6835 12.1125 15.6835Z" fill="#37506E"/>
<path d="M13.3664 22.9761C14.0291 22.9761 14.5664 22.412 14.5664 21.7161C14.5664 21.0203 14.0291 20.4561 13.3664 20.4561C12.7036 20.4561 12.1664 21.0203 12.1664 21.7161C12.1664 22.412 12.7036 22.9761 13.3664 22.9761Z" fill="#37506E"/>
<path d="M19.6584 20.9203C20.3948 20.9203 20.9917 20.3234 20.9917 19.587C20.9917 18.8506 20.3948 18.2537 19.6584 18.2537C18.922 18.2537 18.3251 18.8506 18.3251 19.587C18.3251 20.3234 18.922 20.9203 19.6584 20.9203Z" fill="#37506E"/>
<path fill-rule="evenodd" clip-rule="evenodd" d="M28.1049 23.0901C29.3373 20.8479 29.8961 18.3032 29.7228 15.7607C29.696 15.3678 29.3167 15.1076 28.9265 15.1607C25.6565 15.6056 24.2695 13.7055 23.5125 12.6684C23.2399 12.2951 23.049 12.0336 22.8813 12.0336C18.7297 12.0336 14.2197 9.0967 15.5143 4.8198C15.6517 4.36592 15.3596 3.85003 14.8867 3.81565C13.7795 3.73517 12.4792 3.75165 10.5586 4.69173C8.04006 5.92449 5.97424 7.91994 4.65495 10.3943C3.33565 12.8687 2.83005 15.696 3.21004 18.4743C3.59002 21.2525 4.83625 23.8402 6.7715 25.8695C8.70676 27.8987 11.2325 29.2662 13.9896 29.7774C16.7467 30.2886 19.5948 29.9175 22.1289 28.7169C24.663 27.5164 26.7541 25.5474 28.1049 23.0901ZM25.768 21.8055C26.4461 20.5719 26.8693 19.2237 27.0223 17.8404C25.066 17.6172 23.6266 16.7259 22.6088 15.73C22.2151 15.3448 21.8923 14.9508 21.651 14.6351C19.3994 14.3982 17.133 13.5192 15.423 12.0577C13.8918 10.7491 12.7597 8.89908 12.6311 6.71039C12.367 6.79999 12.0688 6.9215 11.731 7.08687C9.71613 8.07308 8.06347 9.66944 7.00803 11.649C5.9526 13.6284 5.54812 15.8903 5.85211 18.1129C6.15609 20.3355 7.15307 22.4057 8.70128 24.0291C10.2495 25.6525 12.2701 26.7464 14.4758 27.1554C16.6815 27.5643 18.9599 27.2675 20.9872 26.307C23.0145 25.3466 24.6874 23.7714 25.768 21.8055Z" fill="#37506E"/>
<path d="M29.7525 8.72893C29.7525 9.6494 29.0063 10.3956 28.0858 10.3956C27.1653 10.3956 26.4191 9.6494 26.4191 8.72893C26.4191 7.80846 27.1653 7.06226 28.0858 7.06226C29.0063 7.06226 29.7525 7.80846 29.7525 8.72893Z" fill="#37506E"/>
<path d="M22.5236 6.38582C22.5236 7.1222 21.9551 7.71915 21.2537 7.71915C20.5524 7.71915 19.9839 7.1222 19.9839 6.38582C19.9839 5.64944 20.5524 5.05249 21.2537 5.05249C21.9551 5.05249 22.5236 5.64944 22.5236 6.38582Z" fill="#37506E"/>
</svg>
