<svg width="17" height="17" viewBox="0 0 17 17" fill="none" xmlns="http://www.w3.org/2000/svg">
<path d="M15.2645 8.83244C15.2645 5.15911 12.2711 2.16577 8.59782 2.16577C4.92448 2.16577 1.93115 5.15911 1.93115 8.83244C1.93115 12.5058 4.92448 15.4991 8.59782 15.4991C12.2711 15.4991 15.2645 12.5058 15.2645 8.83244ZM13.8845 8.16577H11.9178C11.8578 6.66577 11.5711 5.20577 11.0578 4.09911C12.5778 4.89244 13.6711 6.39244 13.8911 8.16577H13.8845ZM8.59782 14.1658C7.57782 14.1658 6.73782 12.1324 6.61782 9.49911H10.5845C10.4645 12.1324 9.62448 14.1658 8.60448 14.1658H8.59782ZM6.61782 8.16577C6.73782 5.53244 7.57782 3.49911 8.59782 3.49911C9.61782 3.49911 10.4578 5.53244 10.5778 8.16577H6.61115H6.61782ZM6.14448 4.09911C5.62448 5.20577 5.34448 6.65911 5.28448 8.16577H3.31782C3.53782 6.39244 4.63115 4.89244 6.15115 4.09911H6.14448ZM3.31115 9.49911H5.27782C5.33782 10.9991 5.62448 12.4591 6.13782 13.5658C4.61782 12.7724 3.52448 11.2724 3.30448 9.49911H3.31115ZM11.0511 13.5658C11.5711 12.4591 11.8511 11.0058 11.9111 9.49911H13.8778C13.6578 11.2724 12.5645 12.7724 11.0445 13.5658H11.0511Z" fill="#555F62"/>
</svg>
