<svg width="68" height="17" viewBox="0 0 68 17" fill="none" xmlns="http://www.w3.org/2000/svg">
<g clip-path="url(#clip0_124_72)">
<g clip-path="url(#clip1_124_72)">
<g clip-path="url(#clip2_124_72)">
<path d="M34.1418 9.6125C32.7613 9.6125 31.636 10.6644 31.636 12.1132C31.636 13.5531 32.7613 14.6138 34.1418 14.6138C35.523 14.6138 36.6482 13.5531 36.6482 12.1132C36.6476 10.6644 35.5224 9.6125 34.1418 9.6125ZM34.1418 13.6296C33.3852 13.6296 32.7331 13.0046 32.7331 12.1138C32.7331 11.2136 33.3858 10.5979 34.1418 10.5979C34.8984 10.5979 35.5506 11.2136 35.5506 12.1138C35.5506 13.004 34.8984 13.6296 34.1418 13.6296ZM28.6747 9.6125C27.2942 9.6125 26.1689 10.6644 26.1689 12.1132C26.1689 13.5531 27.2942 14.6138 28.6747 14.6138C30.0559 14.6138 31.1811 13.5531 31.1811 12.1132C31.1811 10.6644 30.0559 9.6125 28.6747 9.6125ZM28.6747 13.6296C27.9181 13.6296 27.266 13.0046 27.266 12.1138C27.266 11.2136 27.9187 10.5979 28.6747 10.5979C29.4313 10.5979 30.0835 11.2136 30.0835 12.1138C30.0841 13.004 29.4313 13.6296 28.6747 13.6296ZM22.1722 10.3804V11.4411H24.7068C24.631 12.0379 24.4326 12.4736 24.1298 12.7764C23.7611 13.1457 23.1841 13.5531 22.1722 13.5531C20.612 13.5531 19.3923 12.2931 19.3923 10.7302C19.3923 9.16741 20.612 7.90738 22.1722 7.90738C23.0139 7.90738 23.6285 8.239 24.0822 8.66528L24.8294 7.91679C24.1955 7.31059 23.3544 6.84668 22.1722 6.84668C20.035 6.84668 18.2383 8.58943 18.2383 10.7302C18.2383 12.8711 20.035 14.6138 22.1722 14.6138C23.3256 14.6138 24.1961 14.2346 24.8764 13.5243C25.5761 12.8235 25.7938 11.838 25.7938 11.0425C25.7938 10.7967 25.7751 10.5691 25.7369 10.3798L22.1722 10.3804ZM48.7669 11.2042C48.5591 10.6456 47.9252 9.6125 46.6298 9.6125C45.3437 9.6125 44.2748 10.6262 44.2748 12.1132C44.2748 13.5149 45.3343 14.6138 46.7524 14.6138C47.8965 14.6138 48.5586 13.913 48.8333 13.5055L47.9821 12.9369C47.6986 13.3538 47.3106 13.6284 46.7524 13.6284C46.1948 13.6284 45.7974 13.3726 45.5421 12.8705L48.8802 11.4876L48.7669 11.2042ZM45.3625 12.0379C45.3343 11.0713 46.1097 10.5791 46.6679 10.5791C47.1029 10.5791 47.4715 10.7973 47.5947 11.1095L45.3625 12.0379ZM42.6489 14.4627H43.7454V7.11244H42.6489V14.4627ZM40.8516 10.1717H40.814C40.568 9.87768 40.0949 9.6125 39.4998 9.6125C38.2512 9.6125 37.1072 10.7114 37.1072 12.1232C37.1072 13.5249 38.2512 14.6144 39.4998 14.6144C40.0955 14.6144 40.568 14.3493 40.814 14.0464H40.8516V14.4063C40.8516 15.3629 40.3409 15.8745 39.5185 15.8745C38.847 15.8745 38.4309 15.3917 38.2606 14.9843L37.3056 15.3823C37.5798 16.045 38.3076 16.8599 39.5185 16.8599C40.8046 16.8599 41.8923 16.102 41.8923 14.2546V9.76479H40.8521L40.8516 10.1717ZM39.5943 13.6296C38.8376 13.6296 38.2043 12.9946 38.2043 12.1232C38.2043 11.2418 38.8376 10.5979 39.5943 10.5979C40.3409 10.5979 40.9273 11.2418 40.9273 12.1232C40.9273 12.9946 40.3409 13.6296 39.5943 13.6296ZM53.9053 7.11244H51.281V14.4627H52.3757V11.6781H53.9047C55.1186 11.6781 56.3125 10.7979 56.3125 9.39554C56.3125 7.99322 55.1192 7.11244 53.9053 7.11244ZM53.9335 10.655H52.3757V8.13551H53.9335C54.7523 8.13551 55.2172 8.81462 55.2172 9.39554C55.2172 9.9647 54.7523 10.655 53.9335 10.655ZM60.7025 9.59957C59.9095 9.59957 59.0883 9.94941 58.7485 10.7249L59.7205 11.1313C59.9283 10.7249 60.3157 10.5921 60.7213 10.5921C61.2877 10.5921 61.8636 10.9325 61.873 11.5376V11.6134C61.6746 11.4999 61.2496 11.33 60.7307 11.33C59.6829 11.33 58.6158 11.9068 58.6158 12.9846C58.6158 13.9682 59.4752 14.6015 60.4378 14.6015C61.1739 14.6015 61.5801 14.2705 61.8348 13.8824H61.8724V14.4498H62.9301V11.6316C62.9307 10.3275 61.9575 9.59957 60.7025 9.59957ZM60.5699 13.6278C60.2118 13.6278 59.7111 13.4479 59.7111 13.0034C59.7111 12.436 60.3345 12.2184 60.8727 12.2184C61.3535 12.2184 61.5806 12.3225 61.873 12.4642C61.7878 13.1457 61.2026 13.6278 60.5699 13.6278ZM66.7818 9.76008L65.5263 12.9469H65.4887L64.1856 9.76008H63.0058L64.9599 14.214L63.8458 16.6917H64.988L67.9998 9.76008H66.7818ZM56.9171 14.4627H58.0118V7.11244H56.9171V14.4627Z" fill="#141719"/>
<path d="M21.9786 2.84584C21.9786 3.33856 21.833 3.73074 21.5413 4.02355C21.2102 4.37163 20.7782 4.54567 20.2476 4.54567C19.7393 4.54567 19.3067 4.36927 18.9515 4.01649C18.5958 3.66312 18.418 3.22567 18.418 2.70355C18.418 2.18084 18.5958 1.74339 18.9515 1.3906C19.3067 1.03723 19.7393 0.86084 20.2476 0.86084C20.5 0.86084 20.7412 0.910229 20.9701 1.00842C21.1997 1.1072 21.3834 1.23832 21.5207 1.40236L21.2114 1.71281C20.9784 1.43352 20.6573 1.29418 20.247 1.29418C19.876 1.29418 19.5555 1.42471 19.2849 1.68577C19.0143 1.94683 18.8793 2.28609 18.8793 2.70296C18.8793 3.11983 19.0143 3.45909 19.2849 3.72015C19.5555 3.98121 19.876 4.11174 20.247 4.11174C20.6403 4.11174 20.9684 3.98062 21.2308 3.7178C21.401 3.5467 21.4996 3.30857 21.526 3.00341H20.247V2.57948H21.9533C21.9709 2.6718 21.9786 2.76058 21.9786 2.84584Z" fill="#141719"/>
<path d="M24.6846 1.37279H23.081V2.49111H24.5273V2.91504H23.081V4.03337H24.6846V4.46729H22.6284V0.939453H24.6846V1.37279Z" fill="#141719"/>
<path d="M26.5928 4.46729H26.1402V1.37279H25.1564V0.939453H27.5766V1.37279H26.5928V4.46729Z" fill="#141719"/>
<path d="M29.3275 4.46729V0.939453H29.78V4.46729H29.3275Z" fill="#141719"/>
<path d="M31.787 4.46729H31.3344V1.37279H30.3507V0.939453H32.7708V1.37279H31.787V4.46729Z" fill="#141719"/>
<path d="M37.352 4.0114C37.0057 4.36771 36.5754 4.54586 36.0606 4.54586C35.5459 4.54586 35.1156 4.36771 34.7699 4.0114C34.4236 3.65508 34.251 3.21881 34.251 2.70316C34.251 2.1875 34.4236 1.75123 34.7699 1.39492C35.1156 1.03861 35.5459 0.859863 36.0606 0.859863C36.5725 0.859863 37.0022 1.0392 37.3497 1.39727C37.6971 1.75535 37.8709 2.19044 37.8709 2.70316C37.8709 3.21881 37.6977 3.65508 37.352 4.0114ZM35.1039 3.71565C35.3645 3.98023 35.6832 4.11194 36.0606 4.11194C36.4381 4.11194 36.7574 3.97965 37.0174 3.71565C37.278 3.45106 37.4089 3.11356 37.4089 2.70316C37.4089 2.29275 37.278 1.95525 37.0174 1.69067C36.7574 1.42608 36.4381 1.29438 36.0606 1.29438C35.6832 1.29438 35.3645 1.42667 35.1039 1.69067C34.8438 1.95525 34.713 2.29275 34.713 2.70316C34.713 3.11356 34.8438 3.45106 35.1039 3.71565Z" fill="#141719"/>
<path d="M38.506 4.46729V0.939453H39.0566L40.7682 3.68352H40.7876L40.7682 3.00383V0.939453H41.2208V4.46729H40.7483L38.9574 1.58975H38.938L38.9574 2.26945V4.46729H38.506Z" fill="#141719"/>
<g filter="url(#filter0_dd_124_72)">
<path d="M0.271771 1.25532C0.10096 1.43642 0 1.71747 0 2.08143V15.085C0 15.4496 0.10096 15.7301 0.271771 15.9112L0.315207 15.9535L7.58726 8.66908V8.58323V8.49739L0.315207 1.2124L0.271771 1.25532Z" fill="url(#paint0_linear_124_72)"/>
<path d="M10.0096 11.0982L7.58594 8.66936V8.58351V8.49767L10.0102 6.06934L10.0647 6.1005L12.9368 7.73507C13.7568 8.20192 13.7568 8.9657 12.9368 9.43313L10.0647 11.0677L10.0096 11.0982Z" fill="url(#paint1_linear_124_72)"/>
<g filter="url(#filter1_d_124_72)">
<path d="M10.0638 11.0671L7.58443 8.5835L0.269531 15.9114C0.53954 16.1984 0.986229 16.2337 1.48927 15.9479L10.0638 11.0671Z" fill="url(#paint2_linear_124_72)"/>
</g>
<path d="M10.0638 6.09975L1.48927 1.21958C0.986229 0.933233 0.53954 0.9691 0.269531 1.25603L7.58502 8.58394L10.0638 6.09975Z" fill="url(#paint3_linear_124_72)"/>
</g>
</g>
</g>
</g>
<defs>
<filter id="filter0_dd_124_72" x="0" y="0.871973" width="13.5518" height="15.423" filterUnits="userSpaceOnUse" color-interpolation-filters="sRGB">
<feFlood flood-opacity="0" result="BackgroundImageFix"/>
<feColorMatrix in="SourceAlpha" type="matrix" values="0 0 0 0 0 0 0 0 0 0 0 0 0 0 0 0 0 0 127 0" result="hardAlpha"/>
<feOffset dy="-0.15"/>
<feComposite in2="hardAlpha" operator="out"/>
<feColorMatrix type="matrix" values="0 0 0 0 0 0 0 0 0 0 0 0 0 0 0 0 0 0 0.12 0"/>
<feBlend mode="normal" in2="BackgroundImageFix" result="effect1_dropShadow_124_72"/>
<feColorMatrix in="SourceAlpha" type="matrix" values="0 0 0 0 0 0 0 0 0 0 0 0 0 0 0 0 0 0 127 0" result="hardAlpha"/>
<feOffset dy="0.15"/>
<feComposite in2="hardAlpha" operator="out"/>
<feColorMatrix type="matrix" values="0 0 0 0 1 0 0 0 0 1 0 0 0 0 1 0 0 0 0.25 0"/>
<feBlend mode="normal" in2="effect1_dropShadow_124_72" result="effect2_dropShadow_124_72"/>
<feBlend mode="normal" in="SourceGraphic" in2="effect2_dropShadow_124_72" result="shape"/>
</filter>
<filter id="filter1_d_124_72" x="0.269531" y="8.4335" width="9.79431" height="7.71152" filterUnits="userSpaceOnUse" color-interpolation-filters="sRGB">
<feFlood flood-opacity="0" result="BackgroundImageFix"/>
<feColorMatrix in="SourceAlpha" type="matrix" values="0 0 0 0 0 0 0 0 0 0 0 0 0 0 0 0 0 0 127 0" result="hardAlpha"/>
<feOffset dy="-0.15"/>
<feComposite in2="hardAlpha" operator="out"/>
<feColorMatrix type="matrix" values="0 0 0 0 0 0 0 0 0 0 0 0 0 0 0 0 0 0 0.08 0"/>
<feBlend mode="normal" in2="BackgroundImageFix" result="effect1_dropShadow_124_72"/>
<feBlend mode="normal" in="SourceGraphic" in2="effect1_dropShadow_124_72" result="shape"/>
</filter>
<linearGradient id="paint0_linear_124_72" x1="6.94264" y1="1.94384" x2="-2.92471" y2="11.7945" gradientUnits="userSpaceOnUse">
<stop stop-color="#00A0FF"/>
<stop offset="0.0066" stop-color="#00A1FF"/>
<stop offset="0.2601" stop-color="#00BEFF"/>
<stop offset="0.5122" stop-color="#00D2FF"/>
<stop offset="0.7604" stop-color="#00DFFF"/>
<stop offset="1" stop-color="#00E3FF"/>
</linearGradient>
<linearGradient id="paint1_linear_124_72" x1="14.0042" y1="8.58351" x2="-0.198197" y2="8.58351" gradientUnits="userSpaceOnUse">
<stop stop-color="#FFE000"/>
<stop offset="0.4087" stop-color="#FFBD00"/>
<stop offset="0.7754" stop-color="#FFA500"/>
<stop offset="1" stop-color="#FF9C00"/>
</linearGradient>
<linearGradient id="paint2_linear_124_72" x1="8.71736" y1="9.93225" x2="-4.66401" y2="23.291" gradientUnits="userSpaceOnUse">
<stop stop-color="#FF3A44"/>
<stop offset="1" stop-color="#C31162"/>
</linearGradient>
<linearGradient id="paint3_linear_124_72" x1="-1.57275" y1="-3.07275" x2="4.4024" y2="2.89228" gradientUnits="userSpaceOnUse">
<stop stop-color="#32A071"/>
<stop offset="0.0685" stop-color="#2DA771"/>
<stop offset="0.4762" stop-color="#15CF74"/>
<stop offset="0.8009" stop-color="#06E775"/>
<stop offset="1" stop-color="#00F076"/>
</linearGradient>
<clipPath id="clip0_124_72">
<rect width="68" height="16" fill="white" transform="translate(0 0.859863)"/>
</clipPath>
<clipPath id="clip1_124_72">
<rect width="68" height="16" fill="white" transform="translate(0 0.859863)"/>
</clipPath>
<clipPath id="clip2_124_72">
<rect width="68" height="16" fill="white" transform="translate(0 0.859863)"/>
</clipPath>
</defs>
</svg>
