<svg width="166" height="33" viewBox="0 0 166 33" fill="none" xmlns="http://www.w3.org/2000/svg">
<path d="M33.9263 0.348755H34.9997V32.3488H33.9263V0.348755Z" fill="#555F62"/>
<path d="M160.074 17.5975C160.074 19.138 160.914 19.8849 162.15 19.8849H162.174C162.781 19.8849 163.504 19.6982 164.087 19.3948L165.184 22.7792C164.041 23.2226 163.107 23.4327 161.894 23.456C158.417 23.5961 156.13 21.5888 156.13 17.5975V10.6654H153.143V7.2576H156.13V3.12631L160.097 2.70618V7.2576H164.531V10.6654H160.074V17.5975Z" fill="#555F62"/>
<path d="M1.96609 26.0911C1.99045 26.0828 2.01119 26.0756 2.02771 26.0701C5.66792 24.6697 9.30814 22.0555 11.0816 20.3283C11.665 19.7448 11.9683 19.0679 11.8983 18.2043C11.8983 18.0033 11.8623 17.8022 11.8247 17.5926C11.8099 17.5101 11.7948 17.4264 11.7817 17.3407C10.965 11.3422 11.7583 6.95411 12.3184 4.94682C12.4117 4.57337 12.3184 4.50334 12.225 4.45666C12.1317 4.40998 12.015 4.45666 11.945 4.52668C11.315 5.27358 7.09134 12.0657 5.48126 14.89C4.1745 17.1307 1.16432 22.6157 0.277604 25.1365C0.277604 25.1536 0.265099 25.1988 0.249244 25.2562C0.22178 25.3555 0.184265 25.4912 0.184265 25.58C0.184265 26.0234 0.464282 26.3735 1.07099 26.3269C1.40027 26.2857 1.78403 26.1537 1.96609 26.0911Z" fill="#555F62"/>
<path d="M24.6624 25.6733C21.6289 23.2226 17.5453 21.3786 15.1652 20.7251C14.3718 20.515 13.6484 20.5851 12.9017 21.0752C12.6684 21.2386 12.4584 21.402 12.2017 21.612C7.41802 25.3232 3.19443 26.817 1.1643 27.3538C0.790944 27.4472 0.767609 27.5639 0.767609 27.6806C0.767609 27.7973 0.860948 27.8673 0.954287 27.8907C1.91102 28.0774 9.93817 28.3108 13.1817 28.2875C15.7719 28.2875 22.0489 28.1474 24.6624 27.6339C24.7091 27.6339 24.9658 27.5639 25.1058 27.4939C25.4791 27.2838 25.6658 26.8403 25.3158 26.3502C25.0825 26.0468 24.7324 25.7433 24.6158 25.65L24.6624 25.6733Z" fill="#555F62"/>
<path d="M15.3714 18.9671C15.2057 18.9011 15.0452 18.8373 14.8852 18.7645L14.8618 18.7178C14.0684 18.321 13.6251 17.7375 13.4151 16.9439C12.785 14.5632 12.3417 10.1051 12.9484 6.25389L12.9529 6.22658C12.9801 6.06057 13.0511 5.62691 13.2051 5.29692C13.4617 4.76009 13.9284 4.7134 14.3018 4.92347C14.4418 4.99349 14.6285 5.18022 14.6518 5.2269C16.4019 7.25753 19.6454 12.6026 20.9522 14.8433C22.5856 17.6442 26.3892 24.693 26.7159 25.6266C26.7625 25.72 26.7392 25.8367 26.6459 25.9067C26.5525 25.9768 26.4592 26.0234 26.1792 25.7433C24.7091 24.2729 21.3022 21.3787 15.6785 19.0913C15.5733 19.0474 15.4713 19.0068 15.3714 18.9671Z" fill="#555F62"/>
<path d="M52.8974 19.9549C50.4239 19.9549 48.3471 18.321 48.3471 15.2634C48.3471 12.4625 50.3072 10.5019 52.9674 10.5019C54.0641 10.5019 55.2542 10.922 56.1876 11.7623L58.6844 9.12477C56.9343 7.39756 55.1608 6.74402 52.8974 6.74402C48.2538 6.74402 44.3802 9.5449 44.3802 15.2401C44.3802 20.9352 48.2538 23.736 52.8974 23.736C55.2775 23.736 57.2143 23.0125 59.0812 21.1919L56.4209 18.5778C55.4409 19.5581 54.1808 19.9082 52.8974 19.9082V19.9549Z" fill="#555F62"/>
<path fill-rule="evenodd" clip-rule="evenodd" d="M68.7068 6.90735C63.6033 6.91309 60.4112 10.692 60.4112 15.2632C60.4112 19.8847 63.5381 23.6192 68.7417 23.6192C73.9454 23.6192 77.0956 19.8847 77.0956 15.2632C77.0956 10.6686 73.8104 6.91306 68.7068 6.90735ZM68.7417 19.978C65.8482 19.978 64.3782 17.6907 64.3782 15.2632C64.3782 12.8592 65.8716 10.5018 68.7417 10.5018C71.4019 10.5018 73.1053 12.8358 73.1053 15.2632C73.1053 17.714 71.6353 19.978 68.7417 19.978Z" fill="#555F62"/>
<path fill-rule="evenodd" clip-rule="evenodd" d="M114.501 15.1467C114.501 10.2685 117.814 6.74402 123.018 6.74402L123.041 6.76736C128.408 6.76736 131.745 10.0817 131.139 16.6872H118.608C118.865 18.6711 120.591 20.0949 123.391 20.0949C124.862 20.0949 126.775 19.5347 127.685 18.6011L130.229 21.0986C128.525 22.8724 125.772 23.7127 123.321 23.7127C117.791 23.7127 114.501 20.2816 114.501 15.1467ZM123.135 10.2451C120.988 10.2451 119.238 11.2955 118.655 13.3728H127.288C127.032 11.2955 125.422 10.2451 123.135 10.2451Z" fill="#555F62"/>
<path fill-rule="evenodd" clip-rule="evenodd" d="M143.343 6.88416C141.523 6.88416 139.376 7.6544 138.139 9.45163L137.882 7.23427H134.172V29.9914H138.139V21.4021C139.282 23.1526 141.779 23.6895 143.483 23.6895C148.616 23.6895 151.58 19.9783 151.58 15.2868C151.58 10.5954 148.29 6.88416 143.343 6.88416ZM143.039 19.8382C140.332 19.8382 138.489 17.7843 138.489 15.2868C138.489 12.7894 140.192 10.7354 143.039 10.7354C145.886 10.7354 147.59 12.7894 147.59 15.2868C147.59 17.7843 145.746 19.8382 143.039 19.8382Z" fill="#555F62"/>
<path d="M102.063 15.2634C102.063 18.321 104.14 19.9549 106.614 19.9549V19.9082C107.897 19.9082 109.157 19.5581 110.137 18.5778L112.797 21.1919C110.931 23.0125 108.994 23.736 106.614 23.736C101.97 23.736 98.0969 20.9352 98.0969 15.2401C98.0969 9.5449 101.97 6.74402 106.614 6.74402C108.877 6.74402 110.651 7.39756 112.401 9.12477L109.904 11.7623C108.971 10.922 107.78 10.5019 106.684 10.5019C104.024 10.5019 102.063 12.4625 102.063 15.2634Z" fill="#555F62"/>
<path d="M88.8097 6.97742C86.8029 6.97742 85.1694 7.79434 83.536 9.38151L83.2793 7.21083H79.7324V23.2926H83.676V15.1C83.676 12.6492 85.3328 10.6186 87.7829 10.6186C90.2331 10.6186 91.6565 12.4625 91.6565 14.9133V23.3159H95.6234V14.8899C95.6234 9.84832 92.5899 7.0241 88.833 7.0241L88.8097 6.97742Z" fill="#555F62"/>
</svg>
