<svg width="166" height="33" viewBox="0 0 166 33" fill="none" xmlns="http://www.w3.org/2000/svg">
<path d="M82.299 13.1826C80.459 13.1826 79.189 14.5726 79.189 16.2726C79.189 17.9726 80.339 19.3626 82.299 19.3626C84.259 19.3626 85.399 17.9726 85.399 16.2726C85.399 14.5726 84.139 13.1826 82.299 13.1826ZM68.939 10.4826C71.789 10.4826 73.539 12.6926 73.539 15.8626C73.539 18.3426 72.659 20.2426 71.069 21.7726L69.129 20.1426C70.029 19.1326 70.839 17.5626 70.839 15.8726C70.839 14.0626 69.929 12.9526 68.599 12.9526C67.269 12.9526 66.329 13.8126 66.329 15.6226V18.1926H63.619V15.6226C63.619 13.8126 62.679 12.9526 61.349 12.9526C60.019 12.9526 59.109 14.0626 59.109 15.8726V16.0326C59.159 17.6726 59.939 19.1726 60.819 20.1526L58.879 21.7826C57.289 20.2526 56.409 18.3626 56.409 15.8826V15.7426C56.459 12.6426 58.189 10.5026 61.009 10.5026C62.999 10.5026 64.409 11.4026 64.969 12.7526C65.539 11.4026 66.939 10.5026 68.929 10.5026L68.939 10.4826ZM152.889 10.4826C156.369 10.4826 158.569 13.0826 158.569 16.2026C158.569 18.5426 157.799 20.3326 156.409 21.7726L154.459 20.1626C155.549 18.7626 155.869 17.4926 155.869 16.2126C155.869 14.3826 154.849 12.9426 152.899 12.9426C150.949 12.9426 149.929 14.3826 149.929 16.2126C149.929 17.4926 150.239 18.7626 151.339 20.1626L149.389 21.7726C147.999 20.3326 147.229 18.5426 147.229 16.2026C147.229 13.0926 149.429 10.4826 152.909 10.4826H152.889ZM125.069 6.1626V6.2826C125.069 7.4926 128.179 8.0126 128.179 10.4026C128.179 11.5826 127.249 12.4026 126.139 12.6526C128.039 13.2626 129.219 14.7626 129.219 16.9226C129.219 19.7926 127.069 21.8926 123.519 21.8926C120.949 21.8926 118.749 20.4526 118.179 17.9826L120.619 16.9726C121.009 18.4626 122.119 19.4226 123.519 19.4226C125.489 19.4226 126.489 18.2726 126.489 16.8726C126.489 15.2326 125.339 14.1926 123.519 14.1926H121.849V11.7426H123.369C124.679 11.7426 125.449 11.2526 125.449 10.4126C125.449 8.8726 122.339 8.8326 122.339 6.3526V6.1726H125.069V6.1626ZM86.899 6.2426V8.6926H80.279C79.289 8.6926 78.949 9.2826 78.949 10.0226V12.1226C79.729 10.9326 81.429 10.5726 82.589 10.5726C86.089 10.5726 88.109 13.0926 88.109 16.2726C88.109 19.4526 85.929 21.9726 82.299 21.9726C78.669 21.9726 76.249 19.5426 76.249 15.7726V10.1026C76.249 7.9726 77.689 6.2426 80.129 6.2426H86.909H86.899ZM137.319 15.1626C135.059 15.6426 134.169 17.6526 134.119 19.5426C134.179 21.7126 135.329 24.0326 138.389 24.0326C141.449 24.0326 142.599 21.7126 142.659 19.5426C142.609 17.6826 141.759 15.7226 139.589 15.1926C139.659 15.5826 139.799 16.4726 139.799 17.1826V18.3726H137.089V17.1826C137.089 16.4626 137.239 15.5326 137.309 15.1626H137.319ZM139.809 10.7726V11.3426C139.809 11.7626 139.759 12.2626 139.699 12.6726C143.579 13.2326 145.389 16.3226 145.389 19.5426C145.389 23.1026 143.169 26.5026 138.389 26.5026C133.609 26.5026 131.389 23.1026 131.389 19.5426C131.389 16.2926 133.239 13.1726 137.199 12.6626C137.139 12.2526 137.089 11.7726 137.089 11.3526V10.7826H139.799L139.809 10.7726ZM101.359 10.7726V10.8926C101.359 12.3826 102.509 12.7326 102.509 14.3026C102.509 15.7926 101.539 16.5426 100.139 16.8226C102.159 17.3726 103.219 18.7526 103.219 21.0326C103.219 24.0726 101.019 26.4926 97.219 26.4926C93.419 26.4926 91.239 23.9426 91.239 20.8126V10.7626H93.949V20.8126C93.949 22.4626 95.049 24.0126 97.219 24.0126C99.389 24.0126 100.489 22.5626 100.489 20.9626C100.489 19.1826 99.339 18.0326 97.519 18.0326H97.059V15.5826H98.099C99.139 15.5826 99.769 15.0326 99.769 14.1926C99.769 12.9726 98.619 12.7526 98.619 10.9326V10.7526H101.349L101.359 10.7726ZM110.869 10.4826C114.179 10.4826 116.219 12.4026 116.219 15.8326V21.2226C116.219 24.2726 114.119 26.5026 110.749 26.5026C107.729 26.5026 105.619 24.8526 105.279 21.8126L107.759 21.1226C107.979 23.0526 109.069 24.0326 110.609 24.0326C112.649 24.0326 113.489 22.7726 113.489 21.1726V15.8626C113.489 14.2026 112.599 12.9426 110.869 12.9426C109.139 12.9426 108.229 14.2026 108.229 15.8626V16.8326H105.519V15.8426C105.519 12.4226 107.549 10.4926 110.869 10.4926V10.4826ZM53.169 10.7726V13.1526C53.169 14.8226 52.479 16.0026 51.189 16.6526C53.119 17.3626 54.269 18.9526 54.269 21.2326C54.269 24.2826 52.119 26.5126 48.569 26.5126C45.999 26.5126 43.799 25.0726 43.229 22.6026L45.669 21.5926C46.059 23.0826 47.169 24.0426 48.569 24.0426C50.539 24.0426 51.539 22.7826 51.539 21.1826C51.539 19.4026 50.389 18.1926 48.569 18.1926H46.779V15.7426H47.959C49.649 15.7426 50.439 14.7526 50.439 13.3626V10.7926H53.169V10.7726Z" fill="#555F62"/>
<path d="M14.499 6.75257C14.609 6.81257 14.759 6.98257 14.789 7.01257C16.259 8.71257 18.989 13.2126 20.099 15.1026C21.489 17.4626 24.679 23.3926 24.949 24.1726C24.979 24.2526 24.949 24.3526 24.879 24.4026C24.799 24.4526 24.709 24.4926 24.479 24.2526C23.239 23.0026 20.369 20.5726 15.639 18.6526C15.389 18.5526 15.169 18.4626 14.959 18.3726C14.299 18.0426 13.929 17.5526 13.749 16.8726C13.219 14.8626 12.839 11.1126 13.359 7.87257C13.379 7.76257 13.439 7.37257 13.569 7.07257C13.779 6.62257 14.169 6.57257 14.489 6.75257H14.499ZM12.719 6.31257C12.809 6.35257 12.879 6.41257 12.789 6.72257C12.319 8.42257 11.649 12.1126 12.339 17.1626C12.379 17.4226 12.409 17.6626 12.429 17.8926C12.469 18.6326 12.229 19.1926 11.739 19.6826C10.259 21.1426 7.19899 23.3426 4.12899 24.5126C4.01899 24.5526 3.65899 24.6926 3.32899 24.7226C2.82899 24.7726 2.58899 24.4626 2.58899 24.0926C2.58899 23.9626 2.65899 23.7526 2.66899 23.7126C3.40899 21.5926 5.95899 16.9826 7.03899 15.0826C8.38899 12.7026 11.949 6.98257 12.489 6.35257C12.539 6.28257 12.639 6.25257 12.719 6.29257V6.31257ZM15.199 20.0126C17.209 20.5626 20.649 22.1026 23.199 24.1726C23.289 24.2426 23.589 24.4926 23.779 24.7526C24.069 25.1626 23.919 25.5226 23.599 25.7026C23.489 25.7626 23.269 25.8126 23.229 25.8226C21.019 26.2426 15.749 26.3526 13.559 26.3626C10.819 26.3826 4.06899 26.1726 3.25899 26.0226C3.16899 26.0126 3.09899 25.9426 3.08899 25.8526C3.08899 25.7526 3.08899 25.6626 3.40899 25.5826C5.11899 25.1326 8.65899 23.8726 12.689 20.7426C12.899 20.5826 13.089 20.4326 13.269 20.3026C13.889 19.8926 14.499 19.8226 15.169 20.0026L15.199 20.0126Z" fill="#555F62"/>
<path d="M34.629 1.67261H33.639V30.9926H34.629V1.67261Z" fill="#555F62"/>
</svg>
