<svg width="25" height="25" viewBox="0 0 25 25" fill="none" xmlns="http://www.w3.org/2000/svg">
<path d="M22.1189 21.1325L15.9189 14.8325C16.9189 13.5325 17.4189 12.0325 17.4189 10.3325C17.4189 6.23252 14.0189 2.83252 9.91895 2.83252C5.81895 2.83252 2.41895 6.23252 2.41895 10.3325C2.41895 14.4325 5.81895 17.8325 9.91895 17.8325C11.6189 17.8325 13.2189 17.2325 14.4189 16.3325L20.6189 22.5325C20.8189 22.7325 21.1189 22.8325 21.3189 22.8325C21.5189 22.8325 21.8189 22.7325 22.0189 22.5325C22.5189 22.1325 22.5189 21.5325 22.1189 21.1325ZM4.41895 10.3325C4.41895 7.33252 6.91895 4.83252 9.91895 4.83252C12.9189 4.83252 15.4189 7.33252 15.4189 10.3325C15.4189 13.3325 12.9189 15.8325 9.91895 15.8325C6.91895 15.8325 4.41895 13.3325 4.41895 10.3325Z" fill="#555F62"/>
</svg>
