<svg width="16" height="17" viewBox="0 0 16 17" fill="none" xmlns="http://www.w3.org/2000/svg">
<path d="M9.7987 3.59673L14.4654 8.26339C14.732 8.53006 14.732 8.93006 14.4654 9.19673L9.7987 13.8634C9.53203 14.1301 9.13203 14.1301 8.86537 13.8634C8.5987 13.5967 8.5987 13.1967 8.86537 12.9301L12.3987 9.39673H1.9987C1.5987 9.39673 1.33203 9.13006 1.33203 8.73006C1.33203 8.33006 1.5987 8.06339 1.9987 8.06339H12.3987L8.86537 4.53006C8.73203 4.39673 8.66536 4.26339 8.66536 4.06339C8.66536 3.86339 8.73203 3.73006 8.86537 3.59673C9.13203 3.33006 9.53203 3.33006 9.7987 3.59673Z" fill="white"/>
</svg>
